<svg width="70" height="70" viewBox="0 0 70 70" fill="none" xmlns="http://www.w3.org/2000/svg">
<path d="M20.4166 64.1667H11.6666C10.1195 64.1667 8.63576 63.5521 7.5418 62.4582C6.44783 61.3642 5.83325 59.8805 5.83325 58.3334V37.9167C5.83325 36.3696 6.44783 34.8859 7.5418 33.7919C8.63576 32.698 10.1195 32.0834 11.6666 32.0834H20.4166M40.8333 26.25V14.5834C40.8333 12.2627 39.9114 10.0371 38.2704 8.39619C36.6295 6.75525 34.4039 5.83337 32.0833 5.83337L20.4166 32.0834V64.1667H53.3166C54.7234 64.1826 56.0885 63.6896 57.1605 62.7784C58.2324 61.8672 58.939 60.5993 59.1499 59.2084L63.1749 32.9584C63.3018 32.1223 63.2454 31.2687 63.0097 30.4566C62.7739 29.6445 62.3644 28.8934 61.8095 28.2553C61.2546 27.6172 60.5677 27.1073 59.7962 26.7611C59.0247 26.4148 58.1872 26.2405 57.3416 26.25H40.8333Z" stroke="white" stroke-width="2" stroke-linecap="round" stroke-linejoin="round"/>
</svg>
